<svg id="Warstwa_1" data-name="Warstwa 1" xmlns="http://www.w3.org/2000/svg" viewBox="0 0 262.16 29.69"><defs><style>.cls-1{fill:#fff;}.cls-2{fill:#ffd500;}</style></defs><title>logotyp</title><path class="cls-1" d="M19.93,9.74q2.84,3.15,2.83,8.78,0,1,0,1.55H6.51a5.74,5.74,0,0,0,5.84,4.54A7.93,7.93,0,0,0,15.41,24a8.1,8.1,0,0,0,2.65-1.79l3.4,3.44a11.44,11.44,0,0,1-4.18,3,14,14,0,0,1-5.48,1,13,13,0,0,1-6.24-1.43,10,10,0,0,1-4.12-4,12.15,12.15,0,0,1-1.45-6,12.21,12.21,0,0,1,1.47-6.07A10.29,10.29,0,0,1,5.59,8a12.38,12.38,0,0,1,6-1.45Q17.09,6.59,19.93,9.74Zm-3.25,6.51a5.12,5.12,0,0,0-1.43-3.57,4.83,4.83,0,0,0-3.57-1.34,4.92,4.92,0,0,0-3.51,1.32,6.14,6.14,0,0,0-1.79,3.59Z"/><path class="cls-1" d="M23,6.85l6.68,0L35,23.27,40.32,6.8h6.43L38.22,29.4H31.58Z"/><path class="cls-1" d="M66.84,9.74q2.84,3.15,2.83,8.78,0,1,0,1.55H53.42a5.74,5.74,0,0,0,5.84,4.54A7.93,7.93,0,0,0,62.33,24,8.1,8.1,0,0,0,65,22.22l3.4,3.44a11.44,11.44,0,0,1-4.18,3,14,14,0,0,1-5.48,1,13,13,0,0,1-6.24-1.43,10,10,0,0,1-4.12-4,12.15,12.15,0,0,1-1.45-6,12.21,12.21,0,0,1,1.47-6.07A10.29,10.29,0,0,1,52.5,8a12.38,12.38,0,0,1,6-1.45Q64,6.59,66.84,9.74Zm-3.25,6.51a5.12,5.12,0,0,0-1.43-3.57,4.83,4.83,0,0,0-3.57-1.34,4.92,4.92,0,0,0-3.51,1.32,6.14,6.14,0,0,0-1.79,3.59Z"/><path class="cls-1" d="M94.23,8.9a8.74,8.74,0,0,1,2.25,6.3V29.4H90V17.09a4.66,4.66,0,0,0-1.2-3.38,4.32,4.32,0,0,0-3.25-1.24,4.84,4.84,0,0,0-3.78,1.66,6.13,6.13,0,0,0-1.39,4.14V29.4H73.92V6.8h6.47v3.95q2.35-4.12,7.81-4.2A7.94,7.94,0,0,1,94.23,8.9Z"/><path class="cls-1" d="M116,28.14a10.57,10.57,0,0,1-2.79,1.15,12.23,12.23,0,0,1-3.09.4A7.29,7.29,0,0,1,105,27.89a6.64,6.64,0,0,1-2-5.17V12.26H99.92V7.81h3.15V1.6h6.43V7.81h6.13v4.49h-6.13v9.32q0,2.6,2.06,2.6a7.27,7.27,0,0,0,3.15-.84Z"/><path class="cls-2" d="M120.08,0h7.39l9.16,18.06L145.7,0H153V29.4h-6V9.53l-8.36,16.88h-4.28L126,9.53V29.4h-6Z"/><path class="cls-2" d="M172.53,29.4V26.75a7.25,7.25,0,0,1-2.94,2.18,10.7,10.7,0,0,1-4.16.76,8,8,0,0,1-5.67-2,6.64,6.64,0,0,1-2.1-5.1,6,6,0,0,1,2.25-5,10.18,10.18,0,0,1,6.36-1.83h6.22v-.42a3.42,3.42,0,0,0-1.2-2.79,5.4,5.4,0,0,0-3.51-1,14,14,0,0,0-6.72,2l-2-4.45a27,27,0,0,1,5-2,19.91,19.91,0,0,1,5.17-.63q4.54,0,7,2.14a7.55,7.55,0,0,1,2.54,6l0,14.74Zm-1.81-5.29a3.77,3.77,0,0,0,1.76-2.44v-2h-5.08a5.07,5.07,0,0,0-2.79.61,2.18,2.18,0,0,0-.9,2,2.55,2.55,0,0,0,.94,2.08,4,4,0,0,0,2.58.78A6.2,6.2,0,0,0,170.73,24.11Z"/><path class="cls-2" d="M195,11.82a10.94,10.94,0,0,0-3.23-.57,3.71,3.71,0,0,0-1.89.42,1.37,1.37,0,0,0-.71,1.26,1.56,1.56,0,0,0,1,1.43,18.48,18.48,0,0,0,3.15,1.13,33.28,33.28,0,0,1,3.95,1.41A7.37,7.37,0,0,1,200,19a5.44,5.44,0,0,1,1.13,3.59,6.08,6.08,0,0,1-2.58,5.23,11,11,0,0,1-6.62,1.87,17.41,17.41,0,0,1-5.33-.82,13.75,13.75,0,0,1-4.45-2.33l2.1-4.37a13.22,13.22,0,0,0,3.84,2.08,12.26,12.26,0,0,0,4,.73,4.21,4.21,0,0,0,2.08-.44,1.43,1.43,0,0,0,.78-1.32,1.67,1.67,0,0,0-1-1.51,16.53,16.53,0,0,0-3.17-1.18,32,32,0,0,1-3.84-1.34,6.84,6.84,0,0,1-2.62-2,5.5,5.5,0,0,1-1.09-3.55,6.08,6.08,0,0,1,2.52-5.21,10.51,10.51,0,0,1,6.38-1.85,17,17,0,0,1,4.62.65A15.44,15.44,0,0,1,200.93,9l-2.23,4.41A18.87,18.87,0,0,0,195,11.82Z"/><path class="cls-2" d="M219.41,28.14a10.57,10.57,0,0,1-2.79,1.15,12.23,12.23,0,0,1-3.09.4,7.29,7.29,0,0,1-5.12-1.81,6.64,6.64,0,0,1-2-5.17V12.26h-3.15V7.81h3.15V1.6h6.43V7.81H219v4.49h-6.13v9.32q0,2.6,2.06,2.6a7.27,7.27,0,0,0,3.15-.84Z"/><path class="cls-2" d="M241.14,9.74Q244,12.89,244,18.52q0,1,0,1.55H227.72a5.74,5.74,0,0,0,5.84,4.54,7.93,7.93,0,0,0,3.07-.61,8.11,8.11,0,0,0,2.65-1.79l3.4,3.44a11.44,11.44,0,0,1-4.18,3,14,14,0,0,1-5.48,1,13,13,0,0,1-6.24-1.43,10,10,0,0,1-4.12-4,12.15,12.15,0,0,1-1.45-6,12.21,12.21,0,0,1,1.47-6.07A10.29,10.29,0,0,1,226.8,8a12.38,12.38,0,0,1,6-1.45Q238.3,6.59,241.14,9.74Zm-3.26,6.51a5.12,5.12,0,0,0-1.43-3.57,4.83,4.83,0,0,0-3.57-1.34,4.92,4.92,0,0,0-3.51,1.32,6.14,6.14,0,0,0-1.79,3.59Z"/><path class="cls-2" d="M257.75,7.69a9,9,0,0,1,4.41-1.13v6.09a8.91,8.91,0,0,0-1,0,6.67,6.67,0,0,0-4.72,1.62,5.59,5.59,0,0,0-1.74,4.31V29.4h-6.47V6.8h6.47v4.07A8.22,8.22,0,0,1,257.75,7.69Z"/></svg>